<svg xmlns="http://www.w3.org/2000/svg"
     viewBox="-30 -50 100 50"
     width="600" height="600">

    <circle r="11" fill="white" opacity="" stroke="red" stroke-width="1"
            transform="translate(14 -50 )" />
    <defs>
        <g id="m">
            <path d="M -4 -1 C -3.6667 -2 -3.3333 -4 -3 -6 C -2 -5.3333 -1 -4.6667 0 -4
             C 1 -4.6667 2 -5.3333 3 -6 C 3.3333 -4 3.6667 -2 4 -1 C 2 0 2 0 2 0 C 2 -1 2 -2 2 -4 C 1 -3 1 -3 0 -2 C
              -1 -3 -1 -3 -2 -4 C -2 -2 -2 -1 -2 0 C -2 0 -4 -1 -4 -1" fill="red"/>
        </g>

    </defs>
    <use href="#m" stroke="" transform="scale(2) rotate(0) translate(7 -22)" stroke-width="0.5"  />
</svg>