<svg xmlns="http://www.w3.org/2000/svg"
     viewBox= "1.8 -36 20 20"
     width="600" height="600">
    <defs>
        <g id="signe" fill="white">
            <path d="M -9 -20 L -18 -20 L -18 -29 L -14 -33 L 11 -33 L 16 -29
            L 16 -14 L 12 -11 L 6 -11 L 4 -9 L 4 -4 L -6 -4 L -6 -13 L -3 -16 L 3
            -16 L 6 -18 L 6 -23 L 3 -26 L -7 -26 L -9 -24 L -9 -20 M -6 0 L 4 0 L
            4 6 L -6 6 L -6 0"/>
        </g>
    </defs>
    <rect height="20px" width="20px" x="1.75" y="-36" fill="#ecab0f"/>
    <g fill="#b57c00">
    <circle r="0.5"  opacity="" stroke="black" stroke-width="0.1" transform="translate(20.5 -34.5 )"/>
    <circle r="0.5"  opacity="" stroke="black" stroke-width="0.1" transform="translate(20.5 -17.5 )"/>
    <circle r="0.5"  opacity="" stroke="black" stroke-width="0.1" transform="translate(3 -34.5 )"/>
    <circle r="0.5"  opacity="" stroke="black" stroke-width="0.1" transform="translate(3 -17.5 )"/>
    </g>
    <use href="#signe" stroke="black" transform="scale(0.4)  translate(30 -50 )" stroke-width="0.3" />
</svg>